<?xml version="1.0" encoding="utf-8"?>
<!-- Generator: Adobe Illustrator 22.1.0, SVG Export Plug-In . SVG Version: 6.00 Build 0)  -->
<svg version="1.1" xmlns="http://www.w3.org/2000/svg" xmlns:xlink="http://www.w3.org/1999/xlink" x="0px" y="0px"
	 viewBox="0 0 94.9 85.1" style="enable-background:new 0 0 94.9 85.1;" xml:space="preserve">
<g id="Layer_2">
</g>
<g id="Layer_1">
	<path d="M86.9,19.1H74.5L72.3,6.6c-0.4-2.1-1.5-4-3.3-5.2s-3.9-1.7-6-1.3L6.6,10c-4.4,0.8-7.3,4.9-6.5,9.3l8.7,49.1
		c0.4,2.1,1.6,3.9,3.3,5.2c1.4,1,2.9,1.5,4.6,1.5c0.5,0,1,0,1.4-0.1l3.5-0.6v2.7c0,4.4,3.6,8,8,8h57.3c4.4,0,8-3.6,8-8V27.2
		C94.9,22.7,91.3,19.1,86.9,19.1z M82.3,36.3c0,2.8-2.2,5-5,5s-5-2.2-5-5s2.2-5,5-5C80,31.3,82.3,33.6,82.3,36.3z M16.8,68.4
		c-0.5,0.1-0.9-0.1-1-0.2c-0.2-0.1-0.5-0.4-0.6-0.9L6.6,18.2c-0.1-0.8,0.4-1.5,1.1-1.6l56.4-10c0.1,0,0.2,0,0.2,0
		c0.4,0,0.7,0.2,0.8,0.3c0.2,0.1,0.5,0.4,0.6,0.9l2,11.4H29.6c-4.4,0-8,3.6-8,8v40.4L16.8,68.4z M86.9,78.4H29.6
		c-0.8,0-1.4-0.6-1.4-1.4V63.4l18.7-21.5c0.5-0.6,1.4-0.6,1.9,0l11.6,13.2c0.2,0.2,0.3,0.5,0.2,0.8l-1.5,6.8
		c-0.1,0.5,0.5,0.8,0.8,0.4l11.6-12.7c0.4-0.4,1-0.4,1.3,0l15.4,16.9V77C88.2,77.8,87.6,78.4,86.9,78.4z"/>
</g>
</svg>
